<svg width="128" height="48" viewBox="0 0 128 48" fill="none" xmlns="http://www.w3.org/2000/svg">
<g clip-path="url(#clip0_27932_516)">
<path d="M127.763 23.6238V19.0297C126.964 19.0657 124.567 19.4323 123.506 20.863V19.3461H119.033V34.6526H123.506V27.4199C124.145 24.0121 127.04 23.6526 127.775 23.6238H127.763ZM87.693 23.8036C87.213 23.3206 86.6642 22.9317 86.0697 22.6532C85.5802 22.3848 85.0422 22.247 84.4976 22.2506C84.0942 22.2461 83.6949 22.3419 83.3281 22.531C83.1611 22.6073 83.0194 22.7406 82.9231 22.9121C82.8269 23.0836 82.7808 23.2847 82.7913 23.4872C82.7869 23.6926 82.8418 23.894 82.9478 24.0612C83.0539 24.2285 83.2052 24.3525 83.3793 24.4147C84.0036 24.6747 84.6445 24.8814 85.2965 25.033C85.8275 25.1624 86.3488 25.3379 86.8558 25.5578C87.3657 25.7766 87.8439 26.0794 88.2745 26.4565C88.6948 26.8284 89.0428 27.2933 89.297 27.8225C89.5648 28.414 89.6966 29.0714 89.6805 29.7349C89.7085 30.5452 89.546 31.3494 89.2094 32.0664C88.8728 32.7834 88.3739 33.3878 87.7633 33.8186C87.1776 34.2457 86.5281 34.5502 85.8461 34.7173C85.1595 34.9026 84.456 34.9967 83.7499 34.9977C82.6311 34.9978 81.5196 34.7938 80.4587 34.3937C79.4515 34.0413 78.5305 33.431 77.7682 32.6107L79.9794 29.4977C80.5184 30.0515 81.1307 30.5075 81.7944 30.8493C82.3752 31.178 83.0167 31.3479 83.6668 31.3454C84.0462 31.341 84.4198 31.2402 84.7597 31.0506C84.9324 30.9603 85.0764 30.8127 85.1723 30.6276C85.2683 30.4426 85.3116 30.2289 85.2965 30.0153C85.2988 29.7877 85.2387 29.5647 85.1243 29.3769C85.01 29.1891 84.8469 29.0455 84.6574 28.9656C83.9909 28.6537 83.2998 28.4129 82.5932 28.2467C82.1046 28.1177 81.6242 27.9519 81.1553 27.7506C80.6934 27.5488 80.2622 27.2675 79.8772 26.9166C79.5093 26.5635 79.2056 26.1339 78.9825 25.6513C78.733 25.0741 78.6103 24.438 78.6246 23.7964C78.6036 22.9666 78.7849 22.1461 79.1486 21.4238C79.491 20.7738 79.961 20.2205 80.5226 19.8062C81.0806 19.3856 81.6989 19.0767 82.3504 18.8931C83.0055 18.7002 83.6798 18.6011 84.357 18.5983C85.3815 18.5972 86.3997 18.7792 87.3734 19.1376C88.303 19.4643 89.1565 20.0193 89.8722 20.7624L87.693 23.8036ZM113.876 25.0114C113.87 24.3068 113.644 23.627 113.237 23.0918C112.974 22.7893 112.655 22.5557 112.302 22.4078C111.95 22.2599 111.573 22.2014 111.198 22.2362C110.791 22.2324 110.386 22.3103 110.003 22.4663C109.655 22.6094 109.332 22.8212 109.051 23.0918C108.788 23.3561 108.571 23.673 108.412 24.0264C108.27 24.3331 108.181 24.6674 108.15 25.0114H113.876ZM117.998 27.0892V27.7003C118.008 27.8942 118.008 28.0887 117.998 28.2826H108.13C108.159 28.6935 108.275 29.0905 108.469 29.4402C108.662 29.7911 108.911 30.0984 109.204 30.346C109.51 30.6038 109.851 30.8052 110.214 30.9428C110.586 31.0865 110.977 31.1594 111.371 31.1585C111.995 31.1789 112.614 31.0258 113.173 30.7127C113.643 30.4357 114.052 30.0425 114.368 29.5624L117.48 31.7696C116.832 32.8101 115.949 33.6387 114.924 34.1709C113.792 34.7441 112.561 35.0266 111.319 34.9977C110.334 35.0041 109.355 34.8217 108.424 34.4584C107.546 34.1218 106.735 33.5914 106.041 32.8983C105.35 32.1971 104.803 31.3363 104.437 30.3748C104.028 29.2935 103.828 28.1272 103.849 26.9526C103.835 25.7924 104.029 24.641 104.417 23.5663C104.776 22.6015 105.304 21.7283 105.97 20.9996C106.641 20.2874 107.429 19.7304 108.29 19.3604C109.218 18.9629 110.205 18.7653 111.198 18.7781C112.14 18.7681 113.075 18.9609 113.952 19.3461C114.768 19.7082 115.504 20.2678 116.106 20.9853C116.725 21.7352 117.203 22.618 117.512 23.5807C117.862 24.703 118.032 25.8858 118.017 27.0748L117.998 27.0892ZM64.1049 23.4944V18.8715H60.2705V15.4421C60.1746 13.465 59.3439 11.9912 55.9504 11.9912V29.7996C55.9473 30.5132 56.029 31.2241 56.1932 31.9134C56.3381 32.5189 56.6 33.0811 56.9601 33.5598C57.3458 34.0366 57.8313 34.3974 58.3725 34.6094C59.1284 34.88 59.9183 35.0111 60.7115 34.9977C61.8669 35.0136 63.0158 34.7994 64.1049 34.365V30.267C63.378 30.4766 62.6314 30.5876 61.881 30.5977C61.6473 30.6302 61.4101 30.601 61.1883 30.5124C60.9664 30.4238 60.766 30.2782 60.6028 30.0872C60.3473 29.6204 60.2329 29.0731 60.2769 28.5271V23.4944H64.1049Z" fill="#008FB4"/>
<path d="M99.9888 26.4854L105.037 19.2959H99.6948L95.2213 25.6514V15.5861C95.1383 13.5155 94.3394 11.9913 90.8948 11.9913V34.6527H95.2213V27.3338L100.334 34.6527H105.734L99.9888 26.4854ZM77.0079 34.6383V24.5011C77.0079 20.137 73.9275 18.5697 71.1987 18.5697C69.0501 18.4491 66.9363 19.2162 65.2554 20.7266L67.5113 23.8756C68.4197 22.978 69.5548 22.4225 70.7578 22.2867C72.4002 22.2867 72.7389 23.3436 72.7389 24.6952V24.954H71.2626C67.4665 24.954 65.1851 26.8017 65.1851 30.0945C65.1851 33.6893 67.997 34.6239 71.4224 34.6239L77.0079 34.6383ZM72.7389 31.4534H71.3201C70.2145 31.4534 69.5371 30.9357 69.5371 29.8645C69.5371 28.7932 70.2146 28.1749 71.5694 28.1749H72.7389V31.4534ZM40.1911 14.7736C40.1911 15.5173 40.4537 16.2305 40.9211 16.7563C41.3885 17.2821 42.0224 17.5776 42.6834 17.5776C43.3445 17.5776 43.9784 17.2821 44.4458 16.7563C44.9132 16.2305 45.1758 15.5173 45.1758 14.7736C45.1758 14.03 44.9132 13.3168 44.4458 12.791C43.9784 12.2651 43.3445 11.9697 42.6834 11.9697C42.0224 11.9697 41.3885 12.2651 40.9211 12.791C40.4537 13.3168 40.1911 14.03 40.1911 14.7736ZM40.6129 18.9076H40.4275V34.6527H44.933V22.222C44.8051 20.3096 43.936 18.9076 40.6129 18.9076ZM54.96 23.624V19.0298C54.1675 19.0658 51.7646 19.4325 50.7038 20.8632V19.3462H46.2303V34.6527H50.7038V27.5422C50.7007 27.5016 50.7007 27.4607 50.7038 27.42C51.3428 24.0122 54.2314 23.6527 54.9727 23.624H54.96ZM126.465 32.3449H126.216V32.8769H126.465C126.498 32.8788 126.53 32.8734 126.56 32.8609C126.59 32.8484 126.618 32.8291 126.641 32.8042C126.664 32.7793 126.683 32.7494 126.696 32.7161C126.708 32.6829 126.715 32.647 126.715 32.6109C126.715 32.5747 126.708 32.5389 126.696 32.5056C126.683 32.4724 126.664 32.4424 126.641 32.4175C126.618 32.3926 126.59 32.3733 126.56 32.3608C126.53 32.3483 126.498 32.3429 126.465 32.3449ZM126.715 33.8187L126.408 33.0998H126.216V33.8187H125.935V32.0717H126.536C126.599 32.0697 126.663 32.0823 126.722 32.1086C126.781 32.1349 126.835 32.1744 126.881 32.2248C126.926 32.2752 126.962 32.3353 126.986 32.4017C127.01 32.468 127.022 32.5392 127.021 32.6109C127.022 32.7155 126.994 32.8177 126.94 32.9029C126.886 32.9882 126.809 33.052 126.721 33.0854L127.06 33.8043L126.715 33.8187ZM126.421 31.6619C126.187 31.6489 125.956 31.715 125.756 31.8514C125.556 31.9879 125.398 32.1886 125.3 32.4276C125.203 32.6666 125.171 32.9329 125.21 33.1922C125.248 33.4516 125.355 33.692 125.516 33.8825C125.677 34.0731 125.885 34.2049 126.113 34.2612C126.341 34.3174 126.579 34.2954 126.796 34.198C127.013 34.1006 127.2 33.9323 127.331 33.7148C127.462 33.4972 127.532 33.2404 127.533 32.9775C127.537 32.8089 127.511 32.6409 127.458 32.4834C127.404 32.3258 127.323 32.1817 127.22 32.0595C127.117 31.9372 126.993 31.8391 126.856 31.7709C126.718 31.7026 126.571 31.6656 126.421 31.6619ZM126.421 34.5952C126.136 34.6051 125.854 34.5195 125.613 34.3491C125.371 34.1788 125.18 33.9315 125.064 33.6386C124.947 33.3458 124.911 33.0206 124.959 32.7044C125.007 32.3882 125.138 32.0953 125.335 31.8629C125.531 31.6306 125.785 31.4692 126.063 31.3994C126.342 31.3296 126.632 31.3545 126.898 31.4709C127.164 31.5873 127.393 31.7899 127.556 32.0531C127.719 32.3162 127.809 32.628 127.814 32.9488C127.819 33.3709 127.675 33.7781 127.414 34.0812C127.153 34.3844 126.796 34.5589 126.421 34.5664V34.5952ZM27.8506 25.7736L29.8509 19.303L31.8512 25.7736H27.8506ZM31.9535 11.9913H27.9337L21.7284 30.4396H19.2871C17.6228 30.5189 15.9736 30.0545 14.5388 29.1024C13.967 28.6896 13.5029 28.1132 13.1941 27.4323C12.8853 26.7514 12.7429 25.9904 12.7814 25.2272V23.0704H10.8003C8.9575 23.0135 7.19282 22.2209 5.82192 20.8344C4.75088 19.5706 4.07745 17.9468 3.90471 16.2115H17.7917C20.316 16.2115 21.2491 17.5991 21.8306 18.8429C22.1163 19.4668 22.331 20.1286 22.4697 20.8128L24.2271 15.5861C24.2271 15.5861 22.7573 11.9913 17.7917 11.9913H0V14.1482C0 18.2174 1.07364 21.4815 3.19535 23.8253C4.86084 25.5984 6.96782 26.7572 9.23455 27.1468C10.0334 31.7625 13.8039 34.6383 19.2871 34.6383H24.9876L26.2657 30.4828H33.4042L34.6823 34.6311H39.5584L31.9535 11.9913Z" fill="#008FB4"/>
</g>
<defs>
<clipPath id="clip0_27932_516">
<rect width="128" height="48" fill="white"/>
</clipPath>
</defs>
</svg>
