<svg width="136" height="24" viewBox="0 0 136 24" fill="none" xmlns="http://www.w3.org/2000/svg">
<path d="M12.0014 3L14.3514 8.76L20.5614 9.22L15.8014 13.24L17.2914 19.28L12.0014 16L6.71141 19.28L8.20141 13.24L3.44141 9.22L9.65141 8.76L12.0014 3Z" fill="#F3B64C"/>
<path d="M12.0014 3L9.65141 8.76L3.44141 9.22L8.20141 13.24L6.71141 19.28L12.0014 16M12.0014 3L14.3514 8.76L20.5614 9.22L15.8014 13.24L17.2914 19.28L12.0014 16" stroke="#F3B64C" stroke-width="2" stroke-linecap="round" stroke-linejoin="round"/>
<path d="M40.0014 3L42.3514 8.76L48.5614 9.22L43.8014 13.24L45.2914 19.28L40.0014 16L34.7114 19.28L36.2014 13.24L31.4414 9.22L37.6514 8.76L40.0014 3Z" fill="#F3B64C"/>
<path d="M40.0014 3L37.6514 8.76L31.4414 9.22L36.2014 13.24L34.7114 19.28L40.0014 16M40.0014 3L42.3514 8.76L48.5614 9.22L43.8014 13.24L45.2914 19.28L40.0014 16" stroke="#F3B64C" stroke-width="2" stroke-linecap="round" stroke-linejoin="round"/>
<path d="M68.0014 3L70.3514 8.76L76.5614 9.22L71.8014 13.24L73.2914 19.28L68.0014 16L62.7114 19.28L64.2014 13.24L59.4414 9.22L65.6514 8.76L68.0014 3Z" fill="#F3B64C"/>
<path d="M68.0014 3L65.6514 8.76L59.4414 9.22L64.2014 13.24L62.7114 19.28L68.0014 16M68.0014 3L70.3514 8.76L76.5614 9.22L71.8014 13.24L73.2914 19.28L68.0014 16" stroke="#F3B64C" stroke-width="2" stroke-linecap="round" stroke-linejoin="round"/>
<path d="M96.0014 3L98.3514 8.76L104.561 9.22L99.8014 13.24L101.291 19.28L96.0014 16L90.7114 19.28L92.2014 13.24L87.4414 9.22L93.6514 8.76L96.0014 3Z" fill="#F3B64C"/>
<path d="M96.0014 3L93.6514 8.76L87.4414 9.22L92.2014 13.24L90.7114 19.28L96.0014 16M96.0014 3L98.3514 8.76L104.561 9.22L99.8014 13.24L101.291 19.28L96.0014 16" stroke="#F3B64C" stroke-width="2" stroke-linecap="round" stroke-linejoin="round"/>
<path d="M124.001 3L126.351 8.76L132.561 9.22L127.801 13.24L129.291 19.28L124.001 16L118.711 19.28L120.201 13.24L115.441 9.22L121.651 8.76L124.001 3Z" fill="#F3B64C"/>
<path d="M124.001 3L121.651 8.76L115.441 9.22L120.201 13.24L118.711 19.28L124.001 16M124.001 3L126.351 8.76L132.561 9.22L127.801 13.24L129.291 19.28L124.001 16" stroke="#F3B64C" stroke-width="2" stroke-linecap="round" stroke-linejoin="round"/>
</svg>
