<svg width="208" height="40" viewBox="0 0 208 40" fill="none" xmlns="http://www.w3.org/2000/svg">
<path d="M20 0.5C30.7696 0.5 39.5 9.23045 39.5 20C39.5 30.7696 30.7696 39.5 20 39.5C9.23045 39.5 0.5 30.7696 0.5 20C0.5 9.23045 9.23045 0.5 20 0.5Z" stroke="#252B37"/>
<path d="M24.8941 21.3023L25.464 17.6812H21.9533V15.3275C21.9533 14.3373 22.4434 13.3698 24.0107 13.3698H25.6293V10.2863C24.6867 10.136 23.7343 10.0546 22.7797 10.043C19.8902 10.043 18.0037 11.78 18.0037 14.9201V17.6812H14.8008V21.3023H18.0037V30.0607H21.9533V21.3023H24.8941Z" fill="#FDFDFD"/>
<path d="M76 0.5C86.7696 0.5 95.5 9.23045 95.5 20C95.5 30.7696 86.7696 39.5 76 39.5C65.2304 39.5 56.5 30.7696 56.5 20C56.5 9.23045 65.2304 0.5 76 0.5Z" stroke="#252B37"/>
<path d="M72.6712 20.0509C72.6712 18.2084 74.164 16.7143 76.006 16.7143C77.848 16.7143 79.3416 18.2084 79.3416 20.0509C79.3416 21.8934 77.848 23.3874 76.006 23.3874C74.164 23.3874 72.6712 21.8934 72.6712 20.0509ZM70.868 20.0509C70.868 22.8894 73.1683 25.1903 76.006 25.1903C78.8437 25.1903 81.144 22.8894 81.144 20.0509C81.144 17.2124 78.8437 14.9114 76.006 14.9114C73.1683 14.9114 70.868 17.2124 70.868 20.0509ZM80.1466 14.7077C80.1465 14.9452 80.2169 15.1774 80.3487 15.375C80.4806 15.5726 80.6681 15.7266 80.8874 15.8176C81.1068 15.9086 81.3482 15.9325 81.5811 15.8862C81.8141 15.84 82.0281 15.7257 82.1961 15.5578C82.3641 15.3899 82.4785 15.1759 82.5249 14.9429C82.5713 14.71 82.5477 14.4685 82.4569 14.249C82.3661 14.0294 82.2123 13.8418 82.0148 13.7098C81.8174 13.5777 81.5853 13.5072 81.3478 13.5071H81.3474C81.029 13.5072 80.7238 13.6337 80.4987 13.8588C80.2735 14.084 80.1469 14.3892 80.1466 14.7077ZM71.9636 28.1979C70.988 28.1534 70.4578 27.9909 70.1054 27.8536C69.6383 27.6716 69.3049 27.455 68.9545 27.1049C68.604 26.7548 68.3871 26.4217 68.206 25.9544C68.0687 25.6021 67.9062 25.0716 67.8618 24.0958C67.8133 23.0407 67.8036 22.7238 67.8036 20.051C67.8036 17.3781 67.8141 17.0621 67.8618 16.0062C67.9063 15.0303 68.07 14.5008 68.206 14.1475C68.3879 13.6802 68.6045 13.3468 68.9545 12.9962C69.3045 12.6457 69.6375 12.4287 70.1054 12.2476C70.4576 12.1101 70.988 11.9476 71.9636 11.9032C73.0183 11.8547 73.3351 11.845 76.006 11.845C78.6769 11.845 78.994 11.8555 80.0496 11.9032C81.0252 11.9477 81.5545 12.1114 81.9078 12.2476C82.3749 12.4287 82.7083 12.6461 83.0587 12.9962C83.4092 13.3463 83.6253 13.6802 83.8072 14.1475C83.9445 14.4998 84.107 15.0303 84.1514 16.0062C84.1999 17.0621 84.2096 17.3781 84.2096 20.051C84.2096 22.7238 84.1999 23.0399 84.1514 24.0958C84.1069 25.0716 83.9436 25.602 83.8072 25.9544C83.6253 26.4217 83.4087 26.7552 83.0587 27.1049C82.7087 27.4547 82.3749 27.6716 81.9078 27.8536C81.5556 27.991 81.0252 28.1535 80.0496 28.1979C78.9949 28.2464 78.6781 28.2561 76.006 28.2561C73.3339 28.2561 73.018 28.2464 71.9636 28.1979ZM71.8807 10.1026C70.8155 10.1511 70.0877 10.3201 69.452 10.5675C68.7937 10.823 68.2364 11.1658 67.6795 11.722C67.1226 12.2781 66.7808 12.8365 66.5254 13.495C66.278 14.1312 66.1091 14.8589 66.0606 15.9244C66.0113 16.9916 66 17.3328 66 20.0509C66 22.769 66.0113 23.1102 66.0606 24.1773C66.1091 25.2429 66.278 25.9705 66.5254 26.6068C66.7808 27.2649 67.1227 27.8239 67.6795 28.3798C68.2363 28.9357 68.7937 29.278 69.452 29.5343C70.0889 29.7817 70.8155 29.9506 71.8807 29.9992C72.9482 30.0477 73.2887 30.0598 76.006 30.0598C78.7233 30.0598 79.0644 30.0485 80.1313 29.9992C81.1966 29.9506 81.9239 29.7817 82.56 29.5343C83.2179 29.278 83.7756 28.936 84.3325 28.3798C84.8894 27.8236 85.2305 27.2649 85.4866 26.6068C85.734 25.9705 85.9037 25.2429 85.9514 24.1773C85.9999 23.1094 86.0112 22.769 86.0112 20.0509C86.0112 17.3328 85.9999 16.9916 85.9514 15.9244C85.9029 14.8588 85.734 14.1308 85.4866 13.495C85.2305 12.8369 84.8885 12.279 84.3325 11.722C83.7765 11.1649 83.2179 10.823 82.5608 10.5675C81.924 10.3201 81.1965 10.1503 80.1321 10.1026C79.0652 10.0541 78.7241 10.042 76.0068 10.042C73.2895 10.042 72.9482 10.0533 71.8807 10.1026Z" fill="#FDFDFD"/>
<path d="M132 0.5C142.77 0.5 151.5 9.23045 151.5 20C151.5 30.7696 142.77 39.5 132 39.5C121.23 39.5 112.5 30.7696 112.5 20C112.5 9.23045 121.23 0.5 132 0.5Z" stroke="#252B37"/>
<path d="M127.397 28.1056V17.3005H123.809V28.1056H127.398H127.397ZM125.604 15.8255C126.855 15.8255 127.634 14.9958 127.634 13.9589C127.611 12.8983 126.855 12.0918 125.628 12.0918C124.4 12.0918 123.598 12.8983 123.598 13.9588C123.598 14.9957 124.376 15.8254 125.581 15.8254H125.604L125.604 15.8255ZM129.384 28.1056H132.972V22.0722C132.972 21.7497 132.995 21.4263 133.09 21.196C133.349 20.5505 133.939 19.8823 134.931 19.8823C136.229 19.8823 136.749 20.8731 136.749 22.3258V28.1056H140.337V21.9103C140.337 18.5916 138.567 17.0472 136.206 17.0472C134.27 17.0472 133.42 18.1299 132.948 18.8674H132.972V17.3009H129.384C129.431 18.3145 129.384 28.106 129.384 28.106L129.384 28.1056Z" fill="#FDFDFD"/>
<path d="M188 0.5C198.77 0.5 207.5 9.23045 207.5 20C207.5 30.7696 198.77 39.5 188 39.5C177.23 39.5 168.5 30.7696 168.5 20C168.5 9.23045 177.23 0.5 188 0.5Z" stroke="#252B37"/>
<path d="M194.277 14.2524C194.144 14.1838 194.015 14.1086 193.89 14.0271C193.526 13.7865 193.192 13.503 192.896 13.1826C192.154 12.3344 191.878 11.4739 191.776 10.8715H191.78C191.695 10.3714 191.73 10.0479 191.735 10.0479H188.359V23.1038C188.359 23.2791 188.359 23.4523 188.351 23.6235C188.351 23.6448 188.349 23.6645 188.348 23.6874C188.348 23.6968 188.348 23.7067 188.346 23.7165C188.346 23.7189 188.346 23.7214 188.346 23.7239C188.31 24.1923 188.16 24.6448 187.909 25.0416C187.657 25.4384 187.312 25.7673 186.904 25.9994C186.478 26.2416 185.996 26.3686 185.506 26.368C183.933 26.368 182.658 25.0852 182.658 23.5011C182.658 21.9169 183.933 20.6341 185.506 20.6341C185.804 20.6339 186.1 20.6807 186.383 20.773L186.387 17.3351C185.528 17.2241 184.655 17.2924 183.823 17.5358C182.991 17.7791 182.219 18.1922 181.555 18.7489C180.973 19.2546 180.483 19.8579 180.109 20.5318C179.966 20.7775 179.429 21.7649 179.364 23.3675C179.323 24.2772 179.596 25.2196 179.726 25.6091V25.6173C179.808 25.8466 180.125 26.6293 180.643 27.2891C181.06 27.8183 181.552 28.2833 182.105 28.6689V28.6607L182.113 28.6689C183.748 29.7796 185.56 29.7067 185.56 29.7067C185.874 29.694 186.925 29.7067 188.118 29.1411C189.442 28.5141 190.196 27.5799 190.196 27.5799C190.677 27.0217 191.06 26.3855 191.328 25.6988C191.633 24.8956 191.735 23.9323 191.735 23.5473V16.6209C191.776 16.6454 192.322 17.0063 192.322 17.0063C192.322 17.0063 193.108 17.51 194.334 17.8381C195.213 18.0715 196.399 18.1207 196.399 18.1207V14.7688C195.983 14.8139 195.14 14.6828 194.277 14.2524Z" fill="#FDFDFD"/>
</svg>
